<?xml version="1.0" encoding="utf-8"?>
<!-- Generator: Adobe Illustrator 24.2.0, SVG Export Plug-In . SVG Version: 6.00 Build 0)  -->
<svg version="1.1" id="Capa_1" xmlns="http://www.w3.org/2000/svg" xmlns:xlink="http://www.w3.org/1999/xlink" x="0px" y="0px"
	 viewBox="0 0 512 512" style="enable-background:new 0 0 512 512;" xml:space="preserve">
<style type="text/css">
	.st0{fill:url(#SVGID_1_);}
	.st1{fill:url(#SVGID_2_);}
	.st2{fill:url(#SVGID_3_);}
	.st3{fill:url(#SVGID_4_);}
</style>
<g>
	
		<linearGradient id="SVGID_1_" gradientUnits="userSpaceOnUse" x1="150.5" y1="2" x2="150.5" y2="183" gradientTransform="matrix(1 0 0 -1 0 514)">
		<stop  offset="0" style="stop-color:#E8BD70"/>
		<stop  offset="1" style="stop-color:#EDD185"/>
	</linearGradient>
	<path class="st0" d="M196,331h-91c-8.3,0-15,6.7-15,15v151c0,8.3,6.7,15,15,15h91c8.3,0,15-6.7,15-15V346
		C211,337.7,204.3,331,196,331z"/>
	
		<linearGradient id="SVGID_2_" gradientUnits="userSpaceOnUse" x1="301" y1="2" x2="301" y2="423" gradientTransform="matrix(1 0 0 -1 0 514)">
		<stop  offset="0" style="stop-color:#E8BD70"/>
		<stop  offset="1" style="stop-color:#EDD185"/>
	</linearGradient>
	<path class="st1" d="M346,91h-90c-8.3,0-15,6.7-15,15v391c0,8.3,6.7,15,15,15h90c8.3,0,15-6.7,15-15V106C361,97.7,354.3,91,346,91z
		"/>
	
		<linearGradient id="SVGID_3_" gradientUnits="userSpaceOnUse" x1="451.5" y1="2" x2="451.5" y2="303" gradientTransform="matrix(1 0 0 -1 0 514)">
		<stop  offset="0" style="stop-color:#E8BD70"/>
		<stop  offset="1" style="stop-color:#EDD185"/>
	</linearGradient>
	<path class="st2" d="M497,211h-91c-8.3,0-15,6.7-15,15v271c0,8.3,6.7,15,15,15h91c8.3,0,15-6.7,15-15V226
		C512,217.7,505.3,211,497,211z"/>
	
		<linearGradient id="SVGID_4_" gradientUnits="userSpaceOnUse" x1="256" y1="2" x2="256" y2="514" gradientTransform="matrix(1 0 0 -1 0 514)">
		<stop  offset="0" style="stop-color:#544A33"/>
		<stop  offset="0.5028" style="stop-color:#544A33"/>
		<stop  offset="1" style="stop-color:#544A33"/>
	</linearGradient>
	<path class="st3" d="M497,512H15c-8.3,0-15-6.7-15-15V15C0,6.7,6.7,0,15,0s15,6.7,15,15v467h467c8.3,0,15,6.7,15,15
		S505.3,512,497,512z"/>
</g>
</svg>
