<?xml version="1.0" encoding="utf-8"?>
<!-- Generator: Adobe Illustrator 24.2.0, SVG Export Plug-In . SVG Version: 6.00 Build 0)  -->
<svg version="1.1" id="Capa_1" xmlns="http://www.w3.org/2000/svg" xmlns:xlink="http://www.w3.org/1999/xlink" x="0px" y="0px"
	 viewBox="0 0 512 512" style="enable-background:new 0 0 512 512;" xml:space="preserve">
<style type="text/css">
	.st0{fill:url(#SVGID_1_);}
	.st1{fill:url(#SVGID_2_);}
</style>
<g>
	<g>
		<g>
			
				<linearGradient id="SVGID_1_" gradientUnits="userSpaceOnUse" x1="210.5" y1="2" x2="210.5" y2="514" gradientTransform="matrix(1 0 0 -1 0 514)">
				<stop  offset="0" style="stop-color:#544A33"/>
				<stop  offset="0.5028" style="stop-color:#544A33"/>
				<stop  offset="1" style="stop-color:#544A33"/>
			</linearGradient>
			<path class="st0" d="M286,0c-74.4,0-135,61.6-135,136s60.6,135,135,135s135-60.6,135-135S360.4,0,286,0z M15,331
				c-8.3,0-15,6.7-15,15v151c0,8.3,6.7,15,15,15h60c8.3,0,15-6.7,15-15v-16.8l15-29.8v-91.9L90,331L15,331z"/>
		</g>
	</g>
	<g>
		<g>
			
				<linearGradient id="SVGID_2_" gradientUnits="userSpaceOnUse" x1="89.9999" y1="242.5058" x2="512.0001" y2="242.5058" gradientTransform="matrix(1 0 0 -1 0 514)">
				<stop  offset="0" style="stop-color:#E8BD70"/>
				<stop  offset="1" style="stop-color:#EDD185"/>
			</linearGradient>
			<path class="st1" d="M286,181c-8.3,0-15-6.7-15-15c0-8.3-6.7-15-15-15s-15,6.7-15,15c0,19.5,12.6,36,30,42.2V226
				c0,8.3,6.7,15,15,15s15-6.7,15-15v-17.8c17.4-6.2,30-22.7,30-42.2c0-24.8-20.2-45-45-45c-8.3,0-15-6.7-15-15s6.7-15,15-15
				s15,6.7,15,15c0,8.3,6.7,15,15,15s15-6.7,15-15c0-19.5-12.6-36-30-42.2V46c0-8.3-6.7-15-15-15s-15,6.7-15,15v17.8
				c-17.4,6.2-30,22.7-30,42.2c0,24.8,20.2,45,45,45c8.3,0,15,6.7,15,15S294.3,181,286,181z M507.6,335.4L507.6,335.4
				c-16.5-16.5-42.9-17-60-1.3l-91.4,83c-3.8,3.5-9,4.7-13.6,3.5l-134.4-31.8c-8.1-1.9-13-10-11.1-18c1.9-8.1,9.9-13.1,18-11.1
				l93.4,22.1c23,5.4,46.1-8.5,52-31.3c0.1-0.3,0.1-0.5,0.2-0.8c2-8-2.9-16.2-10.9-18.1l-120-30c-2.4-0.6-4.9-0.6-7.3,0L90,331
				v149.2l254.1,31.6c4.9,0.6,9.3-1.2,12.5-4.3l151-151C513.5,350.7,513.5,341.3,507.6,335.4L507.6,335.4z"/>
		</g>
	</g>
</g>
</svg>
