<?xml version="1.0" encoding="utf-8"?>
<!-- Generator: Adobe Illustrator 24.2.0, SVG Export Plug-In . SVG Version: 6.00 Build 0)  -->
<svg version="1.1" id="Capa_1" xmlns="http://www.w3.org/2000/svg" xmlns:xlink="http://www.w3.org/1999/xlink" x="0px" y="0px"
	 viewBox="0 0 512 512" style="enable-background:new 0 0 512 512;" xml:space="preserve">
<style type="text/css">
	.st0{fill:url(#SVGID_1_);}
	.st1{fill:url(#SVGID_2_);}
</style>
<g>
	
		<linearGradient id="SVGID_1_" gradientUnits="userSpaceOnUse" x1="346.5005" y1="153.0001" x2="346.5005" y2="514" gradientTransform="matrix(1 0 0 -1 0 514)">
		<stop  offset="0" style="stop-color:#544A33"/>
		<stop  offset="0.5028" style="stop-color:#544A33"/>
		<stop  offset="1" style="stop-color:#544A33"/>
	</linearGradient>
	<path class="st0" d="M497,0H196c-8.3,0-15,6.7-15,15v241c0,8.3,6.7,15,15,15h143.8l85.6,85.6c4.9,4.9,12.4,5.8,18.4,2.2
		c4.6-2.8,7.2-7.9,7.2-13.2V271h46c8.3,0,15-6.7,15-15V15C512,6.7,505.3,0,497,0L497,0z"/>
	
		<linearGradient id="SVGID_2_" gradientUnits="userSpaceOnUse" x1="165.5" y1="2" x2="165.5" y2="363" gradientTransform="matrix(1 0 0 -1 0 514)">
		<stop  offset="0" style="stop-color:#E8BD70"/>
		<stop  offset="1" style="stop-color:#EDD185"/>
	</linearGradient>
	<path class="st1" d="M76,512c-1.9,0-3.9-0.4-5.7-1.1c-5.6-2.3-9.3-7.8-9.3-13.9v-76H15c-8.3,0-15-6.7-15-15V166c0-8.3,6.7-15,15-15
		h301c8.3,0,15,6.7,15,15v240c0,8.3-6.7,15-15,15H172.3l-85.6,86.5C83.8,510.5,79.9,512,76,512z"/>
</g>
</svg>
