<?xml version="1.0" encoding="utf-8"?>
<!-- Generator: Adobe Illustrator 24.2.0, SVG Export Plug-In . SVG Version: 6.00 Build 0)  -->
<svg version="1.1" id="Capa_1" xmlns="http://www.w3.org/2000/svg" xmlns:xlink="http://www.w3.org/1999/xlink" x="0px" y="0px"
	 viewBox="0 0 512 512" style="enable-background:new 0 0 512 512;" xml:space="preserve">
<style type="text/css">
	.st0{fill:#D80027;}
	.st1{fill:#FFDA44;}
</style>
<rect y="85.3" class="st0" width="512" height="341.3"/>
<g>
	<polygon class="st1" points="86.9,127.1 101.6,172.2 149,172.2 110.6,200.1 125.3,245.2 86.9,217.4 48.6,245.2 63.2,200.1 
		24.8,172.2 72.3,172.2 	"/>
	<polygon class="st1" points="169.3,284.4 164,274.8 153.2,276.9 160.7,268.8 155.4,259.2 165.3,263.9 172.8,255.8 171.5,266.7 
		181.5,271.4 170.7,273.5 	"/>
	<polygon class="st1" points="199.5,234.5 190.4,228.2 181.7,234.8 184.9,224.3 175.8,218 186.9,217.8 190.1,207.3 193.7,217.7 
		204.7,217.5 195.9,224.1 	"/>
	<polygon class="st1" points="204,160.3 196.2,168.1 201.1,177.9 191.3,172.9 183.5,180.6 185.3,169.8 175.5,164.7 186.4,163 
		188.2,152.2 193.1,162 	"/>
	<polygon class="st1" points="165,110 161.6,120.4 170.5,126.9 159.4,126.9 156,137.4 152.6,126.9 141.6,126.9 150.5,120.4 
		147.1,110 156,116.4 	"/>
</g>
</svg>
