<?xml version="1.0" encoding="iso-8859-1"?>
<!-- Generator: Adobe Illustrator 19.0.0, SVG Export Plug-In . SVG Version: 6.00 Build 0)  -->
<svg version="1.1" id="Layer_1" xmlns="http://www.w3.org/2000/svg" xmlns:xlink="http://www.w3.org/1999/xlink" x="0px" y="0px"
      viewBox="0 0 508 508" style="enable-background:new 0 0 508 508;" xml:space="preserve">
  <circle style="fill:#FFD05B;" cx="254" cy="254" r="254"/>
  <rect x="136.6" y="100.5" style="fill:#2B3B4E;" width="234.3" height="306.9"/>
  <g>
    <path style="fill:#324A5E;" d="M372.9,110.7H134.6c-5.6,0-10.2-4.5-10.2-10.2l0,0c0-5.6,4.5-10.2,10.2-10.2h238.3
                                   c5.6,0,10.2,4.5,10.2,10.2l0,0C383.1,106.1,378.5,110.7,372.9,110.7z"/>
    <path style="fill:#324A5E;" d="M380.5,213H127c-1.4,0-2.6-1.1-2.6-2.6v-15.2c0-1.4,1.1-2.6,2.6-2.6h253.5c1.4,0,2.6,1.1,2.6,2.6
                                   v15.2C383.1,211.9,381.9,213,380.5,213z"/>
    <path style="fill:#324A5E;" d="M380.5,315.3H127c-1.4,0-2.6-1.1-2.6-2.6v-15.2c0-1.4,1.1-2.6,2.6-2.6h253.5c1.4,0,2.6,1.1,2.6,2.6
                                   v15.2C383.1,314.2,381.9,315.3,380.5,315.3z"/>
    <path style="fill:#324A5E;" d="M380.5,417.6H127c-1.4,0-2.6-1.1-2.6-2.6v-15.2c0-1.4,1.1-2.6,2.6-2.6h253.5c1.4,0,2.6,1.1,2.6,2.6
                                   V415C383.1,416.5,381.9,417.6,380.5,417.6z"/>
  </g>
  <path style="fill:#E6E9EE;" d="M370.9,147.9c-17.1,36.4-58.2,87.6-58.2,119.7c0,32.3,26,58.5,58.2,59c32.2-0.5,58.2-26.7,58.2-59
                                 C429.1,235.6,388,184.3,370.9,147.9z"/>
  <path style="fill:#FFFFFF;" d="M370.9,310.7c-1.9,0.3-3.9,0.5-6,0.5c-23.6-0.4-42.8-19.9-42.8-43.5c0-16,14.8-40.4,27.9-62
                                 c1-1.7,2-3.3,3-5c-10.3,25.4-21.4,53.5-18.7,70.5C337.6,291,352.5,306.2,370.9,310.7z"/>
  <g>
  </g>
  <g>
  </g>
  <g>
  </g>
  <g>
  </g>
  <g>
  </g>
  <g>
  </g>
  <g>
  </g>
  <g>
  </g>
  <g>
  </g>
  <g>
  </g>
  <g>
  </g>
  <g>
  </g>
  <g>
  </g>
  <g>
  </g>
  <g>
  </g>
</svg>
