<?xml version="1.0" encoding="utf-8"?>
<!-- Generator: Adobe Illustrator 24.2.0, SVG Export Plug-In . SVG Version: 6.00 Build 0)  -->
<svg version="1.1" id="Capa_1" xmlns="http://www.w3.org/2000/svg" xmlns:xlink="http://www.w3.org/1999/xlink" x="0px" y="0px"
	 viewBox="0 0 512 512" style="enable-background:new 0 0 512 512;" xml:space="preserve">
<style type="text/css">
	.st0{fill:url(#SVGID_1_);}
	.st1{fill:url(#SVGID_2_);}
	.st2{fill:url(#SVGID_3_);}
	.st3{fill:url(#SVGID_4_);}
	.st4{fill:url(#SVGID_5_);}
	.st5{fill:url(#SVGID_6_);}
</style>
<g>
	<g id="Trophy_1_">
		<g>
			
				<linearGradient id="SVGID_1_" gradientUnits="userSpaceOnUse" x1="103.2572" y1="256.2887" x2="103.2572" y2="454" gradientTransform="matrix(1 0 0 -1 0 514)">
				<stop  offset="0" style="stop-color:#544A33"/>
				<stop  offset="0.5028" style="stop-color:#544A33"/>
				<stop  offset="1" style="stop-color:#544A33"/>
			</linearGradient>
			<path class="st0" d="M155,256.7C79.7,227.2,31,155.9,31,75c0-8.3,6.7-15,15-15h87.6c8.3,0,15,6.7,15,15s-6.7,15-15,15H61.7
				c5.5,62.2,45.2,115.7,104.3,138.7c7.7,3,11.5,11.7,8.5,19.4C171.4,255.9,162.7,259.7,155,256.7L155,256.7z"/>
		</g>
		<g>
			
				<linearGradient id="SVGID_2_" gradientUnits="userSpaceOnUse" x1="408.7432" y1="256.2884" x2="408.7432" y2="454" gradientTransform="matrix(1 0 0 -1 0 514)">
				<stop  offset="0" style="stop-color:#544A33"/>
				<stop  offset="0.5028" style="stop-color:#544A33"/>
				<stop  offset="1" style="stop-color:#544A33"/>
			</linearGradient>
			<path class="st1" d="M337.5,248.2c-3-7.7,0.8-16.4,8.5-19.4c59.1-23.1,98.8-76.6,104.3-138.7h-71.9c-8.3,0-15-6.7-15-15
				s6.7-15,15-15H466c8.3,0,15,6.7,15,15c0,80.9-48.7,152.2-124,181.7C349.3,259.7,340.6,255.9,337.5,248.2z"/>
		</g>
		<g>
			
				<linearGradient id="SVGID_3_" gradientUnits="userSpaceOnUse" x1="255.9497" y1="93.9999" x2="255.9497" y2="218.815" gradientTransform="matrix(1 0 0 -1 0 514)">
				<stop  offset="0" style="stop-color:#544A33"/>
				<stop  offset="0.5028" style="stop-color:#544A33"/>
				<stop  offset="1" style="stop-color:#544A33"/>
			</linearGradient>
			<path class="st2" d="M316,420H196c-6.1,0-11.5-3.6-13.9-9.3c-2.3-5.6-1-12.1,3.3-16.3c1-1.1,26.9-28.4,25.3-83.8
				c-0.1-5,2.2-9.7,6.2-12.6c4-2.9,9.2-3.6,13.9-2c14.9,5.3,35.7,5.3,50.5,0c4.7-1.7,9.9-0.9,14,2.1c4,3,6.3,7.8,6,12.8
				c-3.1,59,23,81.4,24.1,82.4c4.9,4,6.8,10.8,4.6,16.7C327.9,416,322.3,420,316,420L316,420z"/>
		</g>
	</g>
	<g>
		<g>
			
				<linearGradient id="SVGID_4_" gradientUnits="userSpaceOnUse" x1="255.9965" y1="184" x2="255.9965" y2="514" gradientTransform="matrix(1 0 0 -1 0 514)">
				<stop  offset="0" style="stop-color:#E8BD70"/>
				<stop  offset="1" style="stop-color:#EDD185"/>
			</linearGradient>
			<path class="st3" d="M256,330c-13.1,0-24.6-1.9-35.3-5.7C95.5,283.4,120,24.5,121.1,13.5C121.8,5.8,128.3,0,136,0h240
				c7.7,0,14.1,5.8,14.9,13.5c1.1,11,25.5,269.6-99.8,310.9C280.5,328.2,269,330,256,330L256,330z"/>
		</g>
		<g>
			<g>
				
					<linearGradient id="SVGID_5_" gradientUnits="userSpaceOnUse" x1="256.0207" y1="285.5567" x2="256.0207" y2="423.824" gradientTransform="matrix(1 0 0 -1 0 514)">
					<stop  offset="0" style="stop-color:#544A33"/>
					<stop  offset="0.5028" style="stop-color:#544A33"/>
					<stop  offset="1" style="stop-color:#544A33"/>
				</linearGradient>
				<path class="st4" d="M327.2,141.9c-1.8-5.4-6.4-9.4-12.1-10.2l-31.5-4.6l-14.1-28.6c-2.5-5.1-7.7-8.4-13.4-8.4h0
					c-5.7,0-10.9,3.2-13.4,8.3l-14.1,28.5l-31.5,4.5c-5.7,0.8-10.4,4.8-12.1,10.2c-1.8,5.4-0.3,11.4,3.8,15.4l22.8,22.2l-5.4,31.4
					c-1,5.6,1.3,11.3,5.9,14.7c4.6,3.4,10.8,3.8,15.8,1.2l28.2-14.8l28.2,14.9c5,2.7,11.2,2.2,15.8-1.1c4.6-3.4,6.9-9,6-14.7
					l-5.3-31.4l22.8-22.2C327.5,153.3,328.9,147.4,327.2,141.9L327.2,141.9z"/>
			</g>
		</g>
		<g>
			
				<linearGradient id="SVGID_6_" gradientUnits="userSpaceOnUse" x1="256" y1="2" x2="256" y2="124" gradientTransform="matrix(1 0 0 -1 0 514)">
				<stop  offset="0" style="stop-color:#E8BD70"/>
				<stop  offset="1" style="stop-color:#EDD185"/>
			</linearGradient>
			<path class="st5" d="M346,512H166c-8.3,0-15-6.7-15-15v-92c0-8.3,6.7-15,15-15h180c8.3,0,15,6.7,15,15v92
				C361,505.3,354.3,512,346,512z"/>
		</g>
	</g>
</g>
</svg>
