<?xml version="1.0" encoding="utf-8"?>
<!-- Generator: Adobe Illustrator 24.2.0, SVG Export Plug-In . SVG Version: 6.00 Build 0)  -->
<svg version="1.1" id="Capa_1" xmlns="http://www.w3.org/2000/svg" xmlns:xlink="http://www.w3.org/1999/xlink" x="0px" y="0px"
	 viewBox="0 0 512 512" style="enable-background:new 0 0 512 512;" xml:space="preserve">
<style type="text/css">
	.st0{fill:url(#SVGID_1_);}
	.st1{fill:url(#SVGID_2_);}
</style>
<g>
	<g>
		<g>
			
				<linearGradient id="SVGID_1_" gradientUnits="userSpaceOnUse" x1="256" y1="2" x2="256" y2="514" gradientTransform="matrix(1 0 0 -1 0 514)">
				<stop  offset="0" style="stop-color:#E8BD70"/>
				<stop  offset="1" style="stop-color:#EDD185"/>
			</linearGradient>
			<circle class="st0" cx="256" cy="256" r="256"/>
		</g>
	</g>
	<g>
		<g>
			
				<linearGradient id="SVGID_2_" gradientUnits="userSpaceOnUse" x1="256" y1="62" x2="256" y2="423" gradientTransform="matrix(1 0 0 -1 0 514)">
				<stop  offset="0" style="stop-color:#544A33"/>
				<stop  offset="0.5028" style="stop-color:#544A33"/>
				<stop  offset="1" style="stop-color:#544A33"/>
			</linearGradient>
			<path class="st1" d="M331,166c0-41.4-33.6-75-75-75s-75,33.6-75,75s33.6,75,75,75S331,207.4,331,166z M256,241
				c-74.4,0-135,60.6-135,135v14.1c0,4.3,1.8,8.3,5,11.2C162.5,434,208.7,452,256,452c47.3,0,93.5-18,130-50.8c3.2-2.8,5-6.9,5-11.2
				V376C391,301.6,330.4,241,256,241z"/>
		</g>
	</g>
</g>
</svg>
