<?xml version="1.0" encoding="utf-8"?>
<!-- Generator: Adobe Illustrator 24.2.0, SVG Export Plug-In . SVG Version: 6.00 Build 0)  -->
<svg version="1.1" id="Capa_1" xmlns="http://www.w3.org/2000/svg" xmlns:xlink="http://www.w3.org/1999/xlink" x="0px" y="0px"
	 viewBox="0 0 512 512" style="enable-background:new 0 0 512 512;" xml:space="preserve">
<style type="text/css">
	.st0{fill:url(#SVGID_1_);}
	.st1{fill:url(#SVGID_2_);}
</style>
<g>
	<g>
		<g>
			
				<linearGradient id="SVGID_1_" gradientUnits="userSpaceOnUse" x1="255.9999" y1="2" x2="255.9999" y2="513.9998" gradientTransform="matrix(1 0 0 -1 0 514)">
				<stop  offset="0" style="stop-color:#E8BD70"/>
				<stop  offset="1" style="stop-color:#EDD185"/>
			</linearGradient>
			<path class="st0" d="M445.6,154.5l-180-151c-5.6-4.6-13.7-4.6-19.2,0l-180,151c-4.8,4-6.7,10.7-4.5,16.6C64,177,69.7,181,76,181
				h72L91.2,494.3c-0.8,4.4,0.4,8.9,3.3,12.3s7.1,5.4,11.5,5.4h300c4.5,0,8.7-2,11.5-5.4s4-7.9,3.3-12.3L364,181h72
				c6.3,0,12-4,14.1-9.9C452.3,165.2,450.4,158.5,445.6,154.5z"/>
		</g>
	</g>
	<g>
		<g>
			
				<linearGradient id="SVGID_2_" gradientUnits="userSpaceOnUse" x1="256" y1="93" x2="256" y2="303" gradientTransform="matrix(1 0 0 -1 0 514)">
				<stop  offset="0" style="stop-color:#544A33"/>
				<stop  offset="0.5028" style="stop-color:#544A33"/>
				<stop  offset="1" style="stop-color:#544A33"/>
			</linearGradient>
			<path class="st1" d="M256,301c-8.3,0-15-6.7-15-15s6.7-15,15-15s15,6.7,15,15c0,8.3,6.7,15,15,15s15-6.7,15-15
				c0-19.5-12.6-36-30-42.2V226c0-8.3-6.7-15-15-15s-15,6.7-15,15v17.8c-17.4,6.2-30,22.7-30,42.2c0,24.8,20.2,45,45,45
				c8.3,0,15,6.7,15,15s-6.7,15-15,15s-15-6.7-15-15c0-8.3-6.7-15-15-15s-15,6.7-15,15c0,19.5,12.6,36,30,42.2V406
				c0,8.3,6.7,15,15,15c8.3,0,15-6.7,15-15v-17.8c17.4-6.2,30-22.7,30-42.2C301,321.2,280.8,301,256,301z"/>
		</g>
	</g>
</g>
</svg>
